HIERARCHY
ROOT newVegas:Hips
{
	OFFSET 0.000000 96.479958 0.000000
	CHANNELS 6 Xposition Yposition Zposition Xrotation Yrotation Zrotation
	JOINT newVegas:Pelvis
	{
		OFFSET 0.000000 0.000000 0.000000
		CHANNELS 3 Xrotation Yrotation Zrotation
		JOINT newVegas:LeftUpLeg
		{
			OFFSET 18.735201 -5.666702 -4.541200
			CHANNELS 3 Xrotation Yrotation Zrotation
			JOINT newVegas:LeftLeg
			{
				OFFSET -0.021200 -31.938179 0.493100
				CHANNELS 3 Xrotation Yrotation Zrotation
				JOINT newVegas:LeftFoot
				{
					OFFSET 0.021200 -31.938179 -4.336299
					CHANNELS 3 Xrotation Yrotation Zrotation
					JOINT newVegas:LeftToeBase
					{
						OFFSET 0.943001 -26.722000 15.023500
						CHANNELS 3 Xrotation Yrotation Zrotation
						End Site
						{
							OFFSET 0.000000 30.670183 0.000000
						}
					}
				}
				JOINT newVegas:Left_PantLeg
				{
					OFFSET 0.663870 -9.044666 -1.108900
					CHANNELS 3 Xrotation Yrotation Zrotation
					End Site
					{
						OFFSET 1.415995 20.635357 0.000000
					}
				}
			}
		}
		JOINT newVegas:RightUpLeg
		{
			OFFSET -18.735201 -5.666702 -4.541200
			CHANNELS 3 Xrotation Yrotation Zrotation
			JOINT newVegas:RightLeg
			{
				OFFSET 0.018946 -31.938133 0.493100
				CHANNELS 3 Xrotation Yrotation Zrotation
				JOINT newVegas:RightFoot
				{
					OFFSET -0.018946 -31.938126 -4.336299
					CHANNELS 3 Xrotation Yrotation Zrotation
					JOINT newVegas:RightToeBase
					{
						OFFSET -0.943001 -26.722004 15.023500
						CHANNELS 3 Xrotation Yrotation Zrotation
						End Site
						{
							OFFSET 0.000000 30.670187 0.000000
						}
					}
				}
				JOINT newVegas:Right_PantLeg
				{
					OFFSET -0.661674 -9.044716 -1.108900
					CHANNELS 3 Xrotation Yrotation Zrotation
					End Site
					{
						OFFSET -1.415958 20.635269 0.000000
					}
				}
			}
		}
	}
	JOINT newVegas:Spine
	{
		OFFSET 0.000000 10.199997 -0.299500
		CHANNELS 3 Xrotation Yrotation Zrotation
		JOINT newVegas:Spine1
		{
			OFFSET 0.000000 11.900002 -1.516600
			CHANNELS 3 Xrotation Yrotation Zrotation
			JOINT newVegas:Spine2
			{
				OFFSET 0.000000 13.600006 -2.842500
				CHANNELS 3 Xrotation Yrotation Zrotation
				JOINT newVegas:Neck
				{
					OFFSET 0.000000 9.624100 -2.890100
					CHANNELS 3 Xrotation Yrotation Zrotation
					JOINT newVegas:Head
					{
						OFFSET 0.000000 14.068802 -1.351900
						CHANNELS 3 Xrotation Yrotation Zrotation
						JOINT newVegas:Hair_Back
						{
							OFFSET 0.000000 3.231903 -17.524799
							CHANNELS 3 Xrotation Yrotation Zrotation
							End Site
							{
								OFFSET 0.000000 19.849884 0.000000
							}
						}
						JOINT newVegas:Hair_Front
						{
							OFFSET 0.000000 31.260406 4.573800
							CHANNELS 3 Xrotation Yrotation Zrotation
							JOINT newVegas:Hair_Front1
							{
								OFFSET 0.000000 2.284103 11.993300
								CHANNELS 3 Xrotation Yrotation Zrotation
								JOINT newVegas:Hair_Front2
								{
									OFFSET 0.000000 2.284103 11.993300
									CHANNELS 3 Xrotation Yrotation Zrotation
									End Site
									{
										OFFSET 0.000000 12.208862 0.000000
									}
								}
							}
						}
						JOINT newVegas:Jowel
						{
							OFFSET 0.000000 -7.458206 6.864100
							CHANNELS 3 Xrotation Yrotation Zrotation
							End Site
							{
								OFFSET 0.000000 19.849884 0.000000
							}
						}
					}
				}
				JOINT newVegas:LeftShoulder
				{
					OFFSET 15.263000 10.923401 -0.547700
					CHANNELS 3 Xrotation Yrotation Zrotation
					JOINT newVegas:LeftArm
					{
						OFFSET 25.438599 -2.830597 -13.032500
						CHANNELS 3 Xrotation Yrotation Zrotation
						JOINT newVegas:LeftForeArm
						{
							OFFSET 29.960503 0.000000 0.000000
							CHANNELS 3 Xrotation Yrotation Zrotation
							JOINT newVegas:LeftHand
							{
								OFFSET 27.849251 0.000000 0.000000
								CHANNELS 3 Xrotation Yrotation Zrotation
								JOINT newVegas:LeftHandThumb1
								{
									OFFSET 4.487587 -3.305161 6.305391
									CHANNELS 3 Xrotation Yrotation Zrotation
									JOINT newVegas:LeftHandThumb2
									{
										OFFSET 5.480453 -3.164139 3.164143
										CHANNELS 3 Xrotation Yrotation Zrotation
										JOINT newVegas:LeftHandThumb3
										{
											OFFSET 5.159721 -2.978973 2.978967
											CHANNELS 3 Xrotation Yrotation Zrotation
											End Site
											{
												OFFSET 2.494507 5.926697 1.738678
											}
										}
									}
								}
								JOINT newVegas:LeftHandIndex1
								{
									OFFSET 18.578728 -0.527832 5.208049
									CHANNELS 3 Xrotation Yrotation Zrotation
									JOINT newVegas:LeftHandIndex2
									{
										OFFSET 3.192009 0.000000 0.000000
										CHANNELS 3 Xrotation Yrotation Zrotation
										JOINT newVegas:LeftHandIndex3
										{
											OFFSET 3.835129 0.000000 0.000000
											CHANNELS 3 Xrotation Yrotation Zrotation
											End Site
											{
												OFFSET -0.034599 3.816971 0.371180
											}
										}
									}
								}
								JOINT newVegas:LeftHandMiddle1
								{
									OFFSET 18.476105 0.000000 0.000000
									CHANNELS 3 Xrotation Yrotation Zrotation
									JOINT newVegas:LeftHandMiddle2
									{
										OFFSET 3.324875 0.000000 0.000000
										CHANNELS 3 Xrotation Yrotation Zrotation
										JOINT newVegas:LeftHandMiddle3
										{
											OFFSET 4.596550 0.000000 0.000000
											CHANNELS 3 Xrotation Yrotation Zrotation
											End Site
											{
												OFFSET 0.057701 4.578827 0.399218
											}
										}
									}
								}
								JOINT newVegas:LeftHandRing1
								{
									OFFSET 17.732719 0.121887 -4.201567
									CHANNELS 3 Xrotation Yrotation Zrotation
									JOINT newVegas:LeftHandRing2
									{
										OFFSET 2.733170 0.000000 0.000000
										CHANNELS 3 Xrotation Yrotation Zrotation
										JOINT newVegas:LeftHandRing3
										{
											OFFSET 3.178268 0.000000 0.000000
											CHANNELS 3 Xrotation Yrotation Zrotation
											End Site
											{
												OFFSET 0.119102 3.170624 0.185394
											}
										}
									}
								}
								JOINT newVegas:LeftHandPinky1
								{
									OFFSET 15.989624 -0.606689 -7.535461
									CHANNELS 3 Xrotation Yrotation Zrotation
									JOINT newVegas:LeftHandPinky2
									{
										OFFSET 2.538986 0.000000 0.000000
										CHANNELS 3 Xrotation Yrotation Zrotation
										JOINT newVegas:LeftHandPinky3
										{
											OFFSET 2.593102 0.000000 0.000000
											CHANNELS 3 Xrotation Yrotation Zrotation
											End Site
											{
												OFFSET -0.150902 2.584198 0.152708
											}
										}
									}
								}
							}
							JOINT newVegas:Left_Sleeve
							{
								OFFSET 0.267448 -0.649796 0.577675
								CHANNELS 3 Xrotation Yrotation Zrotation
								End Site
								{
									OFFSET 0.000000 15.991241 0.000000
								}
							}
							JOINT newVegas:Left_CapeC
							{
								OFFSET 15.715958 -8.608795 -6.935905
								CHANNELS 3 Xrotation Yrotation Zrotation
								JOINT newVegas:Left_CapeC1
								{
									OFFSET 0.000000 -8.688499 0.000000
									CHANNELS 3 Xrotation Yrotation Zrotation
									End Site
									{
										OFFSET 0.000000 8.688499 0.000000
									}
								}
							}
						}
						JOINT newVegas:Left_CapeB
						{
							OFFSET 26.118385 -8.608795 -7.079235
							CHANNELS 3 Xrotation Yrotation Zrotation
							JOINT newVegas:Left_CapeB1
							{
								OFFSET 0.000000 -8.688499 0.000000
								CHANNELS 3 Xrotation Yrotation Zrotation
								End Site
								{
									OFFSET 0.000000 8.688499 0.000000
								}
							}
						}
						JOINT newVegas:Left_CapeA
						{
							OFFSET 5.115639 -8.608795 -10.395809
							CHANNELS 3 Xrotation Yrotation Zrotation
							JOINT newVegas:Left_CapeA1
							{
								OFFSET 0.000000 -8.688499 0.000000
								CHANNELS 3 Xrotation Yrotation Zrotation
								End Site
								{
									OFFSET 0.000000 8.688499 0.000000
								}
							}
						}
					}
				}
				JOINT newVegas:RightShoulder
				{
					OFFSET -15.263000 10.923401 -0.547700
					CHANNELS 3 Xrotation Yrotation Zrotation
					JOINT newVegas:RightArm
					{
						OFFSET -25.438599 -2.830597 -13.032500
						CHANNELS 3 Xrotation Yrotation Zrotation
						JOINT newVegas:RightForeArm
						{
							OFFSET -29.960503 0.000000 0.000000
							CHANNELS 3 Xrotation Yrotation Zrotation
							JOINT newVegas:RightHand
							{
								OFFSET -27.849251 0.000000 0.000000
								CHANNELS 3 Xrotation Yrotation Zrotation
								JOINT newVegas:RightHandThumb1
								{
									OFFSET -4.487587 -3.305161 6.305391
									CHANNELS 3 Xrotation Yrotation Zrotation
									JOINT newVegas:RightHandThumb2
									{
										OFFSET -5.480453 -3.164139 3.164143
										CHANNELS 3 Xrotation Yrotation Zrotation
										JOINT newVegas:RightHandThumb3
										{
											OFFSET -5.159721 -2.978973 2.978967
											CHANNELS 3 Xrotation Yrotation Zrotation
											End Site
											{
												OFFSET -2.494507 5.926697 1.738678
											}
										}
									}
								}
								JOINT newVegas:RightHandIndex1
								{
									OFFSET -18.578728 -0.527832 5.208049
									CHANNELS 3 Xrotation Yrotation Zrotation
									JOINT newVegas:RightHandIndex2
									{
										OFFSET -3.192009 0.000000 0.000000
										CHANNELS 3 Xrotation Yrotation Zrotation
										JOINT newVegas:RightHandIndex3
										{
											OFFSET -3.835129 0.000000 0.000000
											CHANNELS 3 Xrotation Yrotation Zrotation
											End Site
											{
												OFFSET 0.034599 3.816971 0.371180
											}
										}
									}
								}
								JOINT newVegas:RightHandMiddle1
								{
									OFFSET -18.476105 0.000000 0.000000
									CHANNELS 3 Xrotation Yrotation Zrotation
									JOINT newVegas:RightHandMiddle2
									{
										OFFSET -3.324875 0.000000 0.000000
										CHANNELS 3 Xrotation Yrotation Zrotation
										JOINT newVegas:RightHandMiddle3
										{
											OFFSET -4.596550 0.000000 0.000000
											CHANNELS 3 Xrotation Yrotation Zrotation
											End Site
											{
												OFFSET -0.057701 4.578827 0.399218
											}
										}
									}
								}
								JOINT newVegas:RightHandRing1
								{
									OFFSET -17.732719 0.121887 -4.201567
									CHANNELS 3 Xrotation Yrotation Zrotation
									JOINT newVegas:RightHandRing2
									{
										OFFSET -2.733170 0.000000 0.000000
										CHANNELS 3 Xrotation Yrotation Zrotation
										JOINT newVegas:RightHandRing3
										{
											OFFSET -3.178268 0.000000 0.000000
											CHANNELS 3 Xrotation Yrotation Zrotation
											End Site
											{
												OFFSET -0.119102 3.170624 0.185394
											}
										}
									}
								}
								JOINT newVegas:RightHandPinky1
								{
									OFFSET -15.989624 -0.606689 -7.535461
									CHANNELS 3 Xrotation Yrotation Zrotation
									JOINT newVegas:RightHandPinky2
									{
										OFFSET -2.538986 0.000000 0.000000
										CHANNELS 3 Xrotation Yrotation Zrotation
										JOINT newVegas:RightHandPinky3
										{
											OFFSET -2.593102 0.000000 0.000000
											CHANNELS 3 Xrotation Yrotation Zrotation
											End Site
											{
												OFFSET 0.150902 2.584198 0.152708
											}
										}
									}
								}
							}
							JOINT newVegas:Right_CapeC
							{
								OFFSET -15.715958 -8.608795 -6.935905
								CHANNELS 3 Xrotation Yrotation Zrotation
								JOINT newVegas:Right_CapeC1
								{
									OFFSET 0.000000 -8.688499 0.000000
									CHANNELS 3 Xrotation Yrotation Zrotation
									End Site
									{
										OFFSET 0.000000 8.688499 0.000000
									}
								}
							}
							JOINT newVegas:Right_Sleeve
							{
								OFFSET -0.267448 -0.649994 0.577675
								CHANNELS 3 Xrotation Yrotation Zrotation
								End Site
								{
									OFFSET 0.000000 15.991302 0.000000
								}
							}
						}
						JOINT newVegas:Right_CapeA
						{
							OFFSET -5.115540 -8.608795 -10.395824
							CHANNELS 3 Xrotation Yrotation Zrotation
							JOINT newVegas:Right_CapeA1
							{
								OFFSET 0.000000 -8.688499 0.000000
								CHANNELS 3 Xrotation Yrotation Zrotation
								End Site
								{
									OFFSET 0.000000 8.688499 0.000000
								}
							}
						}
						JOINT newVegas:Right_CapeB
						{
							OFFSET -26.118187 -8.608795 -7.079266
							CHANNELS 3 Xrotation Yrotation Zrotation
							JOINT newVegas:Right_CapeB1
							{
								OFFSET 0.000000 -8.688499 0.000000
								CHANNELS 3 Xrotation Yrotation Zrotation
								End Site
								{
									OFFSET 0.000000 8.688499 0.000000
								}
							}
						}
					}
				}
				JOINT newVegas:Left_Collar
				{
					OFFSET 18.625099 8.655502 8.828100
					CHANNELS 3 Xrotation Yrotation Zrotation
					JOINT newVegas:Left_Collar1
					{
						OFFSET 14.783401 10.540405 -1.259500
						CHANNELS 3 Xrotation Yrotation Zrotation
						End Site
						{
							OFFSET 0.000000 18.199875 0.000000
						}
					}
				}
				JOINT newVegas:Collar_Back
				{
					OFFSET 0.000000 15.630707 -20.132601
					CHANNELS 3 Xrotation Yrotation Zrotation
					End Site
					{
						OFFSET 0.000000 22.523010 0.000000
					}
				}
				JOINT newVegas:Left_Peck
				{
					OFFSET 17.239599 -5.132599 25.482599
					CHANNELS 3 Xrotation Yrotation Zrotation
					End Site
					{
						OFFSET 0.000000 22.523010 0.000000
					}
				}
				JOINT newVegas:Right_Peck
				{
					OFFSET -17.239599 -5.132202 25.482599
					CHANNELS 3 Xrotation Yrotation Zrotation
					End Site
					{
						OFFSET 0.000000 22.523010 0.000000
					}
				}
				JOINT newVegas:Right_Collar
				{
					OFFSET -18.625099 8.655792 8.828100
					CHANNELS 3 Xrotation Yrotation Zrotation
					JOINT newVegas:Right_Collar1
					{
						OFFSET -14.783401 10.539993 -1.259500
						CHANNELS 3 Xrotation Yrotation Zrotation
						End Site
						{
							OFFSET 0.000000 18.199631 0.000000
						}
					}
				}
			}
		}
		JOINT newVegas:Belly
		{
			OFFSET 0.000000 -6.540398 9.014299
			CHANNELS 3 Xrotation Yrotation Zrotation
			End Site
			{
				OFFSET 0.000000 11.566666 0.000000
			}
		}
	}
	JOINT newVegas:ElvisFacialAnim_Joint
	{
		OFFSET 1.000000 -95.330101 -8.825800
		CHANNELS 3 Xrotation Yrotation Zrotation
		End Site
		{
			OFFSET 0.000000 35.315800 0.000000
		}
	}
}
MOTION
Frames: 4
Frame Time: 0.033333
-2.529501 83.444214 1.048885 9.511079 -61.528175 10.139687 -0.000000 -0.000001 -0.000000 -41.485579 6.898424 29.341601 42.476257 -8.855461 1.133457 -6.285631 -1.073353 -21.274701 0.000000 -0.000003 0.000000 -0.000001 -0.000002 0.000002 -31.349247 -15.813484 -39.178139 41.611490 6.255720 -4.187905 -15.612989 -2.030441 28.893138 0.000000 0.000000 -0.000000 0.000001 -0.000000 -0.000002 15.063779 -0.418066 -4.284000 5.872403 0.563942 -2.798216 5.868720 0.648179 -2.860161 -0.718900 0.306353 0.742058 -0.718897 0.306345 0.742052 -0.000001 0.000000 -0.000000 -0.718827 0.306350 0.742057 -0.718972 0.306330 0.742054 -0.000000 0.000002 -0.000001 -0.000001 0.000000 -0.000001 1.828099 -3.192686 -12.271575 -39.387399 26.350470 -34.911105 0.429372 -46.808475 0.416191 -10.315070 -0.130715 0.363032 40.109938 -15.297170 -0.360492 5.639823 28.097930 11.338841 -0.000000 -0.000001 -0.000001 6.882245 2.840065 -61.140411 8.248005 7.640058 -89.897871 -0.000003 -0.000000 0.000002 -2.345520 4.688859 -62.655210 8.754124 9.897062 -87.051294 0.000001 0.000002 -0.000002 -9.042454 10.045662 -60.766185 8.524115 9.508810 -66.893049 -0.000005 0.000001 0.000001 -17.946899 14.755005 -51.485846 8.868418 8.667045 -84.811975 -0.000001 -0.000005 -0.000000 0.000001 -0.000002 0.000001 0.000001 -0.000002 0.000001 0.000000 -0.000002 0.000001 0.000002 -0.000002 0.000000 0.000003 -0.000002 -0.000001 0.000002 -0.000002 0.000000 0.000002 -0.000001 -0.000000 0.632606 7.257345 8.700397 7.936022 -9.680161 53.429906 -22.867427 36.194702 17.955437 -27.369920 10.432885 -17.813545 -2.346164 -6.100548 10.731431 2.364039 -23.806283 -8.771057 -0.000000 -0.000000 -0.000000 -0.054746 0.532106 0.738732 0.019784 -0.087309 5.078500 -0.000000 0.000000 -0.000001 0.348265 -5.918529 2.583831 1.432613 -4.204212 24.052103 0.000000 0.000001 0.000000 1.205826 -11.756058 4.154782 1.794853 -3.771866 26.865403 -0.000000 0.000001 -0.000000 2.126191 -19.166865 11.319974 3.354772 -2.122227 18.828550 0.000000 -0.000000 0.000000 0.000000 0.000000 -0.000003 -0.000002 -0.000000 -0.000005 0.000000 -0.000000 -0.000003 -0.000000 0.000000 -0.000002 -0.000000 0.000001 -0.000003 -0.000000 0.000000 -0.000002 0.000000 0.000001 -0.000003 0.000002 0.000001 0.000002 0.000002 0.000001 0.000002 0.000002 0.000001 0.000002 0.000002 0.000001 0.000002 0.000002 0.000001 0.000002 0.000002 0.000001 0.000002 0.000002 0.000001 0.000002 0.000001 0.000001 -0.000000 -0.000000 -0.000001 -0.000000 
-2.298906 81.860664 0.316296 11.851049 -62.873770 13.902532 -0.000000 0.000001 -0.000000 -42.775569 6.236546 28.747214 45.577507 -9.615878 0.991451 -7.638191 1.773936 -21.879295 -0.000000 -0.000002 -0.000000 0.000001 -0.000002 0.000002 -37.299943 -10.678500 -42.449936 50.559963 12.153106 -2.674074 -19.054170 -4.986821 28.261467 0.000000 0.000000 0.000000 -0.000002 -0.000000 -0.000002 16.179062 -0.118818 -4.279899 6.772049 0.431807 -3.131522 6.057467 0.450319 -3.177995 -0.731086 0.324181 0.750391 -0.731107 0.324188 0.750383 -0.000001 0.000001 0.000000 -0.731097 0.324189 0.750392 -0.730955 0.324226 0.750384 0.000001 0.000001 -0.000001 -0.000001 0.000001 -0.000000 1.717792 -3.270199 -13.448354 -41.197444 23.343240 -32.775793 0.218172 -46.325751 0.272153 -7.072144 -1.182597 -0.050380 40.109938 -15.297170 -0.360496 5.639823 28.097933 11.338837 0.000001 -0.000003 -0.000005 6.882248 2.840066 -61.140418 8.248003 7.640062 -89.897871 -0.000005 -0.000001 0.000001 -2.345519 4.688857 -62.655217 8.754122 9.897064 -87.051301 0.000002 0.000000 -0.000002 -9.042458 10.045663 -60.766192 8.524113 9.508810 -66.893049 0.000002 0.000005 -0.000003 -17.946901 14.755000 -51.485846 8.868420 8.667041 -84.811968 0.000001 -0.000002 -0.000000 0.000001 -0.000001 0.000001 0.000001 -0.000001 0.000001 0.000000 -0.000001 0.000001 0.000002 -0.000001 -0.000000 0.000003 -0.000002 -0.000003 0.000002 -0.000001 -0.000000 0.000002 -0.000001 -0.000001 0.392382 8.223123 8.658185 7.979813 -12.326731 54.176750 -23.436543 38.934534 18.207179 -26.367409 12.027386 -15.690305 -2.346177 -6.100497 10.731369 2.364010 -23.806300 -8.771098 0.000003 -0.000000 -0.000001 -0.075302 0.881098 -1.412709 0.019776 -0.087378 5.096205 -0.000001 0.000001 -0.000004 0.345357 -5.691130 1.263665 1.347987 -4.007918 22.723896 0.000001 0.000000 -0.000001 1.040900 -11.727842 2.792063 1.685184 -3.571219 25.538748 0.000000 -0.000001 -0.000000 2.097195 -18.972131 9.986184 3.262943 -1.909231 17.506381 0.000000 -0.000004 0.000000 0.000000 0.000001 0.000002 0.000000 0.000000 0.000002 0.000000 0.000001 0.000001 0.000000 0.000000 0.000003 0.000000 0.000001 -0.000000 0.000000 0.000000 0.000003 0.000000 0.000001 0.000002 -0.000002 0.000000 -0.000000 -0.000002 0.000000 -0.000000 -0.000002 0.000000 -0.000000 -0.000002 0.000000 -0.000000 -0.000002 0.000000 -0.000000 -0.000002 0.000000 -0.000000 -0.000002 0.000000 -0.000000 0.000001 -0.000005 0.000000 -0.000000 0.000001 -0.000000 
-2.053761 80.090996 -0.835015 14.606681 -64.335539 18.036851 0.000000 0.000003 -0.000000 -43.901007 5.116687 28.461487 48.383339 -8.912094 0.964349 -8.651517 3.544608 -23.398884 -0.000000 -0.000000 0.000000 0.000001 0.000000 0.000001 -44.688603 -3.895611 -45.166859 61.533673 14.607878 -1.380074 -23.342282 -1.101321 30.524949 0.000000 0.000000 0.000000 -0.000000 -0.000000 -0.000003 17.468793 0.274803 -4.385786 7.665501 0.275423 -3.510609 6.496222 0.242716 -3.543701 -0.740774 0.347608 0.760789 -0.740793 0.347615 0.760788 -0.000003 0.000002 -0.000000 -0.740775 0.347637 0.760773 -0.740701 0.347582 0.760795 -0.000000 -0.000000 0.000001 -0.000003 0.000002 -0.000001 1.595312 -3.356961 -14.716104 -43.111379 19.946468 -30.701048 -1.430916 -46.021941 -0.926815 -3.655905 -2.228436 -0.402871 40.109941 -15.297173 -0.360496 5.639823 28.097930 11.338843 -0.000000 -0.000000 -0.000003 6.882245 2.840063 -61.140418 8.248007 7.640062 -89.897871 0.000002 0.000001 -0.000000 -2.345523 4.688858 -62.655210 8.754121 9.897063 -87.051301 -0.000003 0.000001 0.000000 -9.042462 10.045662 -60.766185 8.524116 9.508809 -66.893049 -0.000000 -0.000001 -0.000001 -17.946904 14.755002 -51.485850 8.868419 8.667042 -84.811975 0.000002 -0.000005 -0.000003 0.000000 -0.000001 -0.000001 0.000000 -0.000001 -0.000001 -0.000001 -0.000000 -0.000001 -0.000001 -0.000003 0.000002 -0.000000 -0.000003 -0.000001 -0.000001 -0.000003 0.000002 -0.000001 -0.000002 0.000001 0.114043 9.267829 8.617082 8.121004 -15.275894 55.333623 -24.208999 41.712177 18.607286 -25.308026 13.958280 -13.189502 -2.346193 -6.100523 10.731440 2.364029 -23.806310 -8.771075 0.000001 -0.000002 -0.000001 -0.086445 1.266834 -3.792145 0.019743 -0.087408 5.106860 0.000000 -0.000000 -0.000001 0.342690 -5.441009 -0.196441 1.260231 -3.788305 21.255825 0.000001 0.000001 0.000003 0.860241 -11.692685 1.285477 1.569777 -3.346318 24.072351 -0.000000 0.000001 0.000001 2.065551 -18.766438 8.510258 3.168909 -1.670847 16.044852 0.000001 -0.000000 -0.000001 0.000000 -0.000000 -0.000000 -0.000000 0.000000 0.000000 -0.000000 -0.000000 -0.000000 0.000001 -0.000003 -0.000001 0.000001 -0.000003 -0.000003 0.000001 -0.000003 -0.000001 0.000001 -0.000003 -0.000002 -0.000003 -0.000002 0.000001 -0.000003 -0.000002 0.000001 -0.000003 -0.000002 0.000001 -0.000003 -0.000002 0.000001 -0.000003 -0.000002 0.000001 -0.000003 -0.000002 0.000001 -0.000003 -0.000002 0.000001 0.000001 -0.000000 0.000000 0.000000 0.000003 -0.000000 
-2.030046 78.409081 -2.337770 17.721424 -65.672836 22.589874 -0.000000 0.000001 -0.000000 -45.158632 4.099285 28.156406 51.010919 -9.263839 0.878672 -9.684215 5.500728 -23.308734 0.000000 -0.000001 -0.000000 -0.000000 -0.000001 0.000002 -50.618832 1.298997 -46.013349 69.476712 16.803792 -0.194091 -24.471086 0.382979 32.348517 -0.000000 0.000000 0.000001 -0.000001 -0.000001 -0.000003 18.869463 0.692280 -4.628833 8.369911 0.139422 -3.904595 6.970767 0.045414 -3.923179 -0.741550 0.357358 0.765271 -0.741554 0.357368 0.765268 0.000001 -0.000001 -0.000001 -0.741608 0.357331 0.765279 -0.741453 0.357407 0.765259 -0.000003 -0.000002 0.000000 0.000001 -0.000001 -0.000001 1.463527 -3.450771 -16.038888 -44.914679 16.174848 -28.871370 -0.336386 -45.761065 -0.045605 -3.367535 -3.425870 -0.713226 40.109941 -15.297168 -0.360493 5.639824 28.097930 11.338836 0.000003 0.000000 -0.000009 6.882250 2.840066 -61.140418 8.248005 7.640059 -89.897871 -0.000000 0.000000 0.000000 -2.345517 4.688858 -62.655217 8.754122 9.897066 -87.051294 -0.000002 0.000003 0.000001 -9.042455 10.045664 -60.766192 8.524114 9.508808 -66.893049 -0.000002 0.000001 -0.000001 -17.946904 14.755002 -51.485846 8.868422 8.667042 -84.811968 -0.000000 -0.000003 0.000000 -0.000000 -0.000001 0.000001 -0.000000 -0.000001 0.000001 -0.000001 -0.000001 0.000001 0.000000 -0.000005 -0.000003 0.000001 -0.000005 -0.000003 0.000000 -0.000005 -0.000003 -0.000000 -0.000004 -0.000003 -0.183676 10.352823 8.581002 8.424833 -18.271728 56.775790 -25.019048 44.435903 19.054778 -24.392330 15.952800 -10.718986 -2.346165 -6.100488 10.731413 2.364007 -23.806288 -8.771051 -0.000001 -0.000002 0.000001 -0.066828 1.578975 -5.734401 0.019802 -0.087446 5.131167 -0.000000 -0.000000 -0.000001 0.340975 -5.240650 -1.388345 1.193269 -3.607540 20.058604 -0.000001 0.000001 -0.000000 0.714373 -11.660881 0.056479 1.480273 -3.160578 22.876593 -0.000000 0.000002 -0.000001 2.033212 -18.577961 7.306845 3.098077 -1.474184 14.852801 -0.000000 -0.000004 -0.000000 0.000001 0.000000 -0.000000 0.000001 0.000000 0.000000 0.000000 0.000000 -0.000000 -0.000001 0.000000 0.000003 -0.000001 0.000001 0.000002 -0.000001 0.000000 0.000003 -0.000001 0.000001 0.000003 -0.000001 0.000001 -0.000000 -0.000001 0.000001 -0.000000 -0.000001 0.000001 -0.000000 -0.000001 0.000001 -0.000000 -0.000001 0.000001 -0.000000 -0.000001 0.000001 -0.000000 -0.000001 0.000001 -0.000000 0.000001 0.000001 -0.000001 -0.000000 0.000001 -0.000000 
